HIERARCHY
ROOT Hips
{
	OFFSET 0.000000 0.000000 0.000000
	CHANNELS 6 Xposition Yposition Zposition Xrotation Yrotation Zrotation
	JOINT LeftUpLeg_virtual
	{
		OFFSET 0.000000 0.000000 0.000000
		CHANNELS 3 Xrotation Yrotation Zrotation
		JOINT LeftUpLeg
		{
			OFFSET 15.427100 -6.655098 0.678600
			CHANNELS 3 Xrotation Yrotation Zrotation
			JOINT LeftLeg
			{
				OFFSET 4.081073 -39.591068 13.024000
				CHANNELS 3 Xrotation Yrotation Zrotation
				JOINT LeftFoot
				{
					OFFSET -4.081074 -37.707932 -15.979700
					CHANNELS 3 Xrotation Yrotation Zrotation
					JOINT LeftToeBase
					{
						OFFSET 5.346399 -15.068900 20.645000
						CHANNELS 3 Xrotation Yrotation Zrotation
						JOINT LeftToe_End
						{
							OFFSET 2.754700 0.931300 11.300900
							CHANNELS 3 Xrotation Yrotation Zrotation
							End Site
							{
								OFFSET 0 0 0
							}
						}
					}
				}
			}
		}
	}
	JOINT RightUpLeg_virtual
	{
		OFFSET 0.000000 0.000000 0.000000
		CHANNELS 3 Xrotation Yrotation Zrotation
		JOINT RightUpLeg
		{
			OFFSET -15.569500 -6.655098 0.678600
			CHANNELS 3 Xrotation Yrotation Zrotation
			JOINT RightLeg
			{
				OFFSET -4.081825 -39.591045 13.023800
				CHANNELS 3 Xrotation Yrotation Zrotation
				JOINT RightFoot
				{
					OFFSET 4.081824 -37.707954 -15.979600
					CHANNELS 3 Xrotation Yrotation Zrotation
					JOINT RightToeBase
					{
						OFFSET -5.346400 -15.068900 20.645000
						CHANNELS 3 Xrotation Yrotation Zrotation
						JOINT RightToe_End
						{
							OFFSET -2.754700 0.931300 11.300900
							CHANNELS 3 Xrotation Yrotation Zrotation
							End Site
							{
								OFFSET 0 0 0
							}
						}
					}
				}
			}
		}
	}
	JOINT Spine_virtual
	{
		OFFSET 0.000000 0.000000 0.000000
		CHANNELS 3 Xrotation Yrotation Zrotation
		JOINT Spine
		{
			OFFSET -0.279200 12.230698 -2.892100
			CHANNELS 3 Xrotation Yrotation Zrotation
			JOINT Spine1
			{
				OFFSET -0.232667 10.192268 -1.242267
				CHANNELS 3 Xrotation Yrotation Zrotation
				JOINT Spine1_split
				{
					OFFSET -0.232667 10.192268 -1.242267
					CHANNELS 3 Xrotation Yrotation Zrotation
					JOINT Spine2
					{
						OFFSET -0.232667 10.192268 -1.242267
						CHANNELS 3 Xrotation Yrotation Zrotation
						JOINT Neck_virtual
						{
							OFFSET 0.000000 0.000000 0.000000
							CHANNELS 3 Xrotation Yrotation Zrotation
							JOINT Neck
							{
								OFFSET -0.418800 17.814194 8.416900
								CHANNELS 3 Xrotation Yrotation Zrotation
								JOINT Head
								{
									OFFSET 0.000000 7.031097 3.806800
									CHANNELS 3 Xrotation Yrotation Zrotation
									JOINT HeadTop_End
									{
										OFFSET 0.000000 24.646606 12.978600
										CHANNELS 3 Xrotation Yrotation Zrotation
										End Site
										{
											OFFSET 0 0 0
										}
									}
								}
							}
						}
						JOINT LeftShoulder_virtual
						{
							OFFSET 0.000000 0.000000 0.000000
							CHANNELS 3 Xrotation Yrotation Zrotation
							JOINT LeftShoulder
							{
								OFFSET 8.476499 7.247704 -3.868750
								CHANNELS 3 Xrotation Yrotation Zrotation
								JOINT LeftShoulder_split
								{
									OFFSET 8.476499 7.247704 -3.868750
									CHANNELS 3 Xrotation Yrotation Zrotation
									JOINT LeftArm
									{
										OFFSET 9.308998 -2.777710 0.208600
										CHANNELS 3 Xrotation Yrotation Zrotation
										JOINT LeftForeArm
										{
											OFFSET 29.972298 0.000000 0.000000
											CHANNELS 3 Xrotation Yrotation Zrotation
											JOINT LeftHand
											{
												OFFSET 26.026505 0.000000 0.000000
												CHANNELS 3 Xrotation Yrotation Zrotation
												End Site
												{
													OFFSET 0 0 0
												}
											}
										}
									}
								}
							}
						}
						JOINT RightShoulder_virtual
						{
							OFFSET 0.000000 0.000000 0.000000
							CHANNELS 3 Xrotation Yrotation Zrotation
							JOINT RightShoulder
							{
								OFFSET -7.570500 7.247704 -3.868750
								CHANNELS 3 Xrotation Yrotation Zrotation
								JOINT RightShoulder_split
								{
									OFFSET -7.570500 7.247704 -3.868750
									CHANNELS 3 Xrotation Yrotation Zrotation
									JOINT RightArm
									{
										OFFSET -9.308998 -2.777710 0.208500
										CHANNELS 3 Xrotation Yrotation Zrotation
										JOINT RightForeArm
										{
											OFFSET -29.972300 0.000000 0.000000
											CHANNELS 3 Xrotation Yrotation Zrotation
											JOINT RightHand
											{
												OFFSET -26.026505 0.000000 0.000000
												CHANNELS 3 Xrotation Yrotation Zrotation
												End Site
												{
													OFFSET 0 0 0
												}
											}
										}
									}
								}
							}
						}
					}
				}
			}
		}
	}
}
MOTION
Frames: 7
Frame Time: 0.03333333
-31.946892 42.272415 280.639221 0.000000 0.000000 0.000000 -172.449709 16.392705 178.678077 -85.246307 -11.727085 36.994968 91.169734 -10.324648 -9.966738 7.836391 -7.944733 10.503579 -3.595696 0.309962 -1.002330 0.000000 0.000000 0.000000 -172.692987 15.378173 177.837362 -80.229192 16.961305 -36.281914 91.317888 9.468754 11.208718 -2.392422 4.992388 -6.117456 3.606625 1.608440 1.989886 0.000000 0.000000 0.000000 -172.683479 17.354971 -179.932031 18.704403 -3.704570 -7.209400 4.182878 -0.214904 -2.574359 0.838331 -0.104643 0.385616 0.000000 0.000000 0.000000 4.894989 -0.718645 -1.831055 -1.592685 -0.088363 -1.143984 -20.270130 0.115719 7.864302 0.000000 0.000000 0.000000 3.998522 -0.481463 -2.413445 0.988077 -2.888671 -11.263232 -3.196027 -0.179568 1.611982 -15.365952 -40.244164 -44.642253 0.490295 -58.652617 0.927420 0.000000 0.000000 0.000000 5.038665 -0.591267 -1.887507 -2.745005 19.312565 -1.272123 -1.507110 0.663811 0.658039 -25.899504 26.397491 30.504024 -179.930241 69.142169 179.616217 0.000000 0.000000 0.000000 
-31.931601 42.271873 280.618958 0.000000 0.000000 0.000000 -172.487193 16.439582 178.642819 -85.285984 -11.792138 36.956074 91.238541 -10.335407 -9.950232 7.849831 -7.926034 10.539318 -3.599901 0.310569 -1.038676 0.000000 0.000000 0.000000 -172.737315 15.394015 177.810069 -80.310293 16.874751 -36.306267 91.312997 9.473769 11.237263 -2.365141 4.943841 -6.129221 3.630806 1.603065 1.993998 0.000000 0.000000 0.000000 -172.727056 17.382794 -179.934408 18.621942 -3.650357 -7.247215 4.154887 -0.201758 -2.578910 0.838041 -0.111163 0.389924 0.000000 0.000000 0.000000 4.866556 -0.690083 -1.860145 -1.573060 -0.222051 -1.077674 -21.022188 -0.037850 7.951232 0.000000 0.000000 0.000000 4.016420 -0.471805 -2.424051 0.971225 -2.883187 -11.267101 -3.392364 -0.079768 1.540310 -15.319011 -40.359099 -44.585518 0.559251 -58.512489 0.995560 0.000000 0.000000 0.000000 5.027481 -0.568532 -1.910095 -3.061073 18.482309 -2.172796 -1.430838 0.625719 0.670156 -27.563146 26.642970 31.020633 179.812407 68.273464 -179.998721 0.000000 0.000000 0.000000 
-31.920193 42.273293 280.607635 0.000000 0.000000 0.000000 -172.523393 16.502195 178.593095 -85.330011 -11.854992 36.913149 91.292261 -10.342173 -9.917598 7.872135 -7.904484 10.564365 -3.607218 0.309719 -1.073669 0.000000 0.000000 0.000000 -172.778569 15.431363 177.767353 -80.387386 16.784831 -36.330002 91.314425 9.478009 11.260174 -2.318089 4.889703 -6.133575 3.642163 1.598036 1.996366 0.000000 0.000000 0.000000 -172.766889 17.433026 -179.959352 18.536879 -3.609208 -7.266453 4.133936 -0.199369 -2.575273 0.837666 -0.127710 0.394631 0.000000 0.000000 0.000000 4.846292 -0.669012 -1.880777 -1.565452 -0.347815 -1.020732 -21.728046 -0.214629 8.030841 0.000000 0.000000 0.000000 4.054514 -0.476564 -2.422601 0.951325 -2.903554 -11.319040 -3.579981 -0.017988 1.499110 -15.209100 -40.460743 -44.525170 0.609283 -58.426005 1.023185 0.000000 0.000000 0.000000 5.022076 -0.558194 -1.921598 -3.334105 17.778853 -2.874025 -1.318300 0.572285 0.639971 -29.061676 26.918537 31.345797 179.679095 67.697727 -179.738914 0.000000 0.000000 0.000000 
-31.916519 42.278755 280.602356 0.000000 0.000000 0.000000 -172.559415 16.584702 178.534602 -85.380623 -11.908450 36.860601 91.323871 -10.345425 -9.870961 7.908424 -7.885769 10.573006 -3.627481 0.305786 -1.100081 0.000000 0.000000 0.000000 -172.816558 15.497575 177.711974 -80.451753 16.696305 -36.354478 91.313967 9.476082 11.279029 -2.273036 4.829424 -6.143271 3.660496 1.593619 1.999898 0.000000 0.000000 0.000000 -172.801669 17.505035 179.991331 18.448677 -3.579363 -7.268198 4.121096 -0.206246 -2.563631 0.858962 -0.145374 0.389490 0.000000 0.000000 0.000000 4.834288 -0.656101 -1.890604 -1.563834 -0.465255 -0.977424 -22.392536 -0.409691 8.096073 0.000000 0.000000 0.000000 4.102803 -0.490942 -2.409426 0.929462 -2.949110 -11.401167 -3.783612 0.006133 1.498295 -15.046615 -40.541496 -44.448293 0.612352 -58.370482 0.994213 0.000000 0.000000 0.000000 5.017976 -0.558667 -1.921605 -3.566650 17.176983 -3.418564 -1.185914 0.482581 0.586418 -30.423794 27.235384 31.521156 179.637377 67.253383 -179.585126 0.000000 0.000000 0.000000 
-31.920015 42.285404 280.604492 0.000000 0.000000 0.000000 -172.593812 16.687081 178.470630 -85.435271 -11.951028 36.793181 91.336650 -10.344906 -9.812055 7.959317 -7.869040 10.569794 -3.656213 0.298375 -1.118308 0.000000 0.000000 0.000000 -172.851734 15.591978 177.652414 -80.500733 16.617736 -36.380945 91.311167 9.466024 11.295121 -2.240442 4.766553 -6.166353 3.692206 1.589986 2.006392 0.000000 0.000000 0.000000 -172.831653 17.593212 179.925775 18.357170 -3.558295 -7.257909 4.114946 -0.218500 -2.547167 0.898925 -0.172369 0.380291 0.000000 0.000000 0.000000 4.826709 -0.650567 -1.892260 -1.562908 -0.575057 -0.949596 -23.016249 -0.610966 8.141878 0.000000 0.000000 0.000000 4.153157 -0.510487 -2.389537 0.908099 -3.011237 -11.491915 -3.992637 0.009649 1.525580 -14.854577 -40.590872 -44.353059 0.552286 -58.311456 0.909952 0.000000 0.000000 0.000000 5.011581 -0.567097 -1.913514 -3.772285 16.637738 -3.869875 -1.085397 0.352075 0.515548 -31.690790 27.583214 31.626580 179.656064 66.819140 -179.522233 0.000000 0.000000 0.000000 
-31.931065 42.291679 280.610168 0.000000 0.000000 0.000000 -172.626037 16.805540 178.408639 -85.491900 -11.982953 36.709200 91.333850 -10.339487 -9.746892 8.016602 -7.851449 10.559403 -3.679804 0.287734 -1.133172 0.000000 0.000000 0.000000 -172.884150 15.704345 177.593074 -80.538722 16.556664 -36.412640 91.307000 9.452060 11.308056 -2.214528 4.706507 -6.193529 3.727742 1.586894 2.014230 0.000000 0.000000 0.000000 -172.855682 17.693921 179.849044 18.264575 -3.543130 -7.243305 4.112156 -0.232381 -2.529755 0.939440 -0.187145 0.369453 0.000000 0.000000 0.000000 4.816454 -0.649636 -1.888307 -1.557229 -0.679172 -0.936830 -23.597981 -0.808030 8.169829 0.000000 0.000000 0.000000 4.194252 -0.531271 -2.369000 0.887875 -3.079890 -11.582188 -4.195129 0.003363 1.573294 -14.646004 -40.596431 -44.229218 0.431884 -58.208026 0.781683 0.000000 0.000000 0.000000 4.999562 -0.578869 -1.902221 -3.965008 16.132628 -4.281806 -0.990861 0.233076 0.415333 -32.920566 27.899074 31.751504 179.709490 66.366674 -179.533858 0.000000 0.000000 0.000000 
-31.946493 42.297359 280.617004 0.000000 0.000000 0.000000 -172.656022 16.931604 178.354353 -85.544417 -12.008880 36.609291 91.321016 -10.327302 -9.683274 8.067267 -7.828075 10.549400 -3.689716 0.274437 -1.150949 0.000000 0.000000 0.000000 -172.914148 15.825852 177.537940 -80.571657 16.515741 -36.445866 91.303776 9.443532 11.313512 -2.191470 4.660282 -6.201853 3.750050 1.583341 2.020109 0.000000 0.000000 0.000000 -172.874943 17.802629 179.774035 18.172780 -3.531932 -7.231786 4.109318 -0.245605 -2.512508 0.977897 -0.206300 0.372308 0.000000 0.000000 0.000000 4.798398 -0.652282 -1.883381 -1.550210 -0.780548 -0.935753 -24.148330 -0.991836 8.175369 0.000000 0.000000 0.000000 4.221599 -0.549818 -2.353643 0.868654 -3.144878 -11.665342 -4.368563 -0.003740 1.616164 -14.451951 -40.567680 -44.099840 0.271078 -58.054668 0.635054 0.000000 0.000000 0.000000 4.981492 -0.589906 -1.891187 -4.162804 15.643906 -4.693315 -0.897539 0.132358 0.323759 -34.112048 28.147853 31.952086 179.757069 65.938004 -179.582462 0.000000 0.000000 0.000000 
